<?xml version="1.0" encoding="utf-8"?>
<!-- Generator: Adobe Illustrator 19.1.0, SVG Export Plug-In . SVG Version: 6.00 Build 0)  -->
<svg version="1.1" id="Calque_1" xmlns="http://www.w3.org/2000/svg" xmlns:xlink="http://www.w3.org/1999/xlink" x="0px" y="0px"
	 viewBox="169.5 102.1 437.7 437.7" style="enable-background:new 169.5 102.1 437.7 437.7;" xml:space="preserve">
<style type="text/css">
	.st0{fill:#00A19A;}
	.st1{fill:#FFFFFF;}
	.st2{fill:none;}
</style>
<g>
	<g id="XMLID_1_">
		<path class="st0" d="M561.4,187c73.9,95.6,56.3,233-39.2,307c-95.6,73.9-233,56.4-307-39.2c-73.9-95.6-56.4-233,39.2-306.9
			C350.1,73.8,487.5,91.4,561.4,187z"/>
		<path class="st1" d="M416,444.1c-12.2,3.2-25.1,4.6-38.3,3.9c-30-1.6-57-13.7-77.6-32.6c-0.2-0.2-0.4-0.4-0.6-0.5
			c-26.3-24.5-42-60-39.9-98.6c1.8-36.6,19.2-68.6,45.3-90c23.4-19.1,53.9-29.8,86.6-27.6c13.7,0.5,27.1,3.9,39.3,8.7
			c0,0,50.1,13.1,76,3.6c3.1-1.2,5.6,1.3,4.4,4.1c-5.7,12.8-13.4,37-8.3,68.3c2.4,6.6,3.9,13.7,5.1,21.3c1.2,8,1.5,16.6,0.9,25.3
			C505.8,385.5,466.9,430.5,416,444.1z M468.8,327.7c2.4-46.4-33.2-86.3-79.5-88.8c-46.5-2.9-86.4,32.6-88.8,79.5
			c-2.4,46.4,33.2,86.3,79.6,88.8C426.4,409.6,466.3,374,468.8,327.7z"/>
		<g>
			<path class="st2" d="M388.4,271.9c-13.5,0-24.5,11-24.5,24.5s11,24.5,24.5,24.5s24.5-11,24.5-24.5S401.9,271.9,388.4,271.9z"/>
			<path class="st0" d="M389.2,238.9c-46.5-2.9-86.4,32.6-88.8,79.5c-2.4,46.4,33.2,86.3,79.6,88.8c46.4,2.4,86.3-33.2,88.8-79.5
				C471.2,281.3,435.6,241.3,389.2,238.9z M388.4,320.8c-13.5,0-24.5-11-24.5-24.5s11-24.5,24.5-24.5s24.5,11,24.5,24.5
				S401.9,320.8,388.4,320.8z"/>
		</g>
		<path class="st1" d="M388.4,271.9c13.5,0,24.5,11,24.5,24.5s-11,24.5-24.5,24.5s-24.5-11-24.5-24.5S374.9,271.9,388.4,271.9z"/>
	</g>
</g>
</svg>
